Cars 2 2011 CAM XViD V2 - IMAGiNE

++++++++++++++++++++++++++++++++++


Ripper ...........: IMAGiNE IMDB Rating.......: 6.6/10 
Video Codec.......: XVID Re
lease Date......: 26/06/11
Audio Codec.......: MP3
 Theatre Date......: 24/06/11
Audio Bitrate.....: 128
 Runtime.......: 1h 34mn
Subtitles.........: ENG WHEN NEEDED
 Language..........: ENGLISH
Resolution......: 720 x 304 
IMDb URL..........: http://www.imdb.com/title/tt1216475/


DETAILS:

Video
ID : 0
Format : MPEG-4 Visual
Format profile : Advanced Simple@L5
Format settings, BVOP : 2
Format settings, QPel : No
Format settings, GMC : No warppoints
Format settings, Matrix : Default (MPEG)
Muxing mode : Packed bitstream
Codec ID : XVID
Codec ID/Hint : XviD
Duration : 1h 34mn
Bit rate : 1 945 Kbps
Width : 720 pixels
Height : 304 pixels
Display aspect ratio : 2.35:1
Frame rate : 25.000 fps
Color space : YUV
Chroma subsampling : 4:2:0
Bit depth : 8 bits
Scan type : Progressive
Compression mode : Lossy
Bits/(Pixel*Frame) : 0.355
Stream size : 1.28 GiB (93%)
Writing library : XviD 61

Audio
ID : 1
Format : MPEG Audio
Format version : Version 1
Format profile : Layer 3
Mode : Joint stereo
Mode extension : MS Stereo
Codec ID : 55
Codec ID/Hint : MP3
Duration : 1h 34mn
Bit rate mode : Constant
Bit rate : 128 Kbps
Channel(s) : 2 channels
Sampling rate : 44.1 KHz
Compression mode : Lossy
Stream size : 86.6 MiB (6%)
Alignment : Split accross interleaves
Interleave, duration : 40 ms (1.00 video frame)
Interleave, preload duration : 500 ms
Writing library : LAME3.98r
Encoding settings : -m j -V 4 -q 2 -lowpass 17 -b 128


